<mxfile host="app.diagrams.net" modified="2021-05-19T18:10:13.343Z" agent="5.0 (X11; Linux x86_64) AppleWebKit/537.36 (KHTML, like Gecko) Chrome/90.0.4430.212 Safari/537.36" etag="dsWmUDHc2wSvYnRgcL8g" version="14.6.13" type="github">
  <diagram id="fe9o9t63jJ4nMrAucya3" name="Page-1">
    <mxGraphModel dx="1955" dy="980" grid="1" gridSize="10" guides="1" tooltips="1" connect="1" arrows="1" fold="1" page="1" pageScale="1" pageWidth="827" pageHeight="1169" math="0" shadow="0">
      <root>
        <mxCell id="0" />
        <mxCell id="1" parent="0" />
        <mxCell id="1kwHoDAKHIwVnWZ9qKXR-3" style="edgeStyle=orthogonalEdgeStyle;rounded=0;orthogonalLoop=1;jettySize=auto;html=1;exitX=1;exitY=0.5;exitDx=0;exitDy=0;entryX=0;entryY=0.5;entryDx=0;entryDy=0;" parent="1" source="1kwHoDAKHIwVnWZ9qKXR-1" target="1kwHoDAKHIwVnWZ9qKXR-2" edge="1">
          <mxGeometry relative="1" as="geometry" />
        </mxCell>
        <mxCell id="1kwHoDAKHIwVnWZ9qKXR-5" style="edgeStyle=orthogonalEdgeStyle;rounded=0;orthogonalLoop=1;jettySize=auto;html=1;exitX=1;exitY=0.5;exitDx=0;exitDy=0;entryX=0;entryY=0.5;entryDx=0;entryDy=0;" parent="1" source="1kwHoDAKHIwVnWZ9qKXR-1" target="1kwHoDAKHIwVnWZ9qKXR-4" edge="1">
          <mxGeometry relative="1" as="geometry" />
        </mxCell>
        <mxCell id="1kwHoDAKHIwVnWZ9qKXR-7" style="edgeStyle=orthogonalEdgeStyle;rounded=0;orthogonalLoop=1;jettySize=auto;html=1;exitX=1;exitY=0.5;exitDx=0;exitDy=0;entryX=0;entryY=0.5;entryDx=0;entryDy=0;" parent="1" source="1kwHoDAKHIwVnWZ9qKXR-1" target="1kwHoDAKHIwVnWZ9qKXR-6" edge="1">
          <mxGeometry relative="1" as="geometry" />
        </mxCell>
        <mxCell id="39DIHfGKGRZBKEEOlCm_-33" style="edgeStyle=orthogonalEdgeStyle;rounded=0;orthogonalLoop=1;jettySize=auto;html=1;exitX=1;exitY=0.5;exitDx=0;exitDy=0;entryX=0;entryY=0.5;entryDx=0;entryDy=0;" parent="1" source="1kwHoDAKHIwVnWZ9qKXR-1" target="1kwHoDAKHIwVnWZ9qKXR-8" edge="1">
          <mxGeometry relative="1" as="geometry" />
        </mxCell>
        <mxCell id="39DIHfGKGRZBKEEOlCm_-34" style="edgeStyle=orthogonalEdgeStyle;rounded=0;orthogonalLoop=1;jettySize=auto;html=1;exitX=1;exitY=0.5;exitDx=0;exitDy=0;entryX=0;entryY=0.5;entryDx=0;entryDy=0;" parent="1" source="1kwHoDAKHIwVnWZ9qKXR-1" target="1kwHoDAKHIwVnWZ9qKXR-11" edge="1">
          <mxGeometry relative="1" as="geometry" />
        </mxCell>
        <mxCell id="39DIHfGKGRZBKEEOlCm_-35" style="edgeStyle=orthogonalEdgeStyle;rounded=0;orthogonalLoop=1;jettySize=auto;html=1;exitX=1;exitY=0.5;exitDx=0;exitDy=0;entryX=0;entryY=0.5;entryDx=0;entryDy=0;" parent="1" source="1kwHoDAKHIwVnWZ9qKXR-1" target="1kwHoDAKHIwVnWZ9qKXR-15" edge="1">
          <mxGeometry relative="1" as="geometry" />
        </mxCell>
        <mxCell id="39DIHfGKGRZBKEEOlCm_-36" style="edgeStyle=orthogonalEdgeStyle;rounded=0;orthogonalLoop=1;jettySize=auto;html=1;exitX=1;exitY=0.5;exitDx=0;exitDy=0;entryX=0;entryY=0.5;entryDx=0;entryDy=0;" parent="1" source="1kwHoDAKHIwVnWZ9qKXR-1" target="1kwHoDAKHIwVnWZ9qKXR-17" edge="1">
          <mxGeometry relative="1" as="geometry" />
        </mxCell>
        <mxCell id="39DIHfGKGRZBKEEOlCm_-37" style="edgeStyle=orthogonalEdgeStyle;rounded=0;orthogonalLoop=1;jettySize=auto;html=1;exitX=1;exitY=0.5;exitDx=0;exitDy=0;entryX=0;entryY=0.5;entryDx=0;entryDy=0;" parent="1" source="1kwHoDAKHIwVnWZ9qKXR-1" target="1kwHoDAKHIwVnWZ9qKXR-19" edge="1">
          <mxGeometry relative="1" as="geometry" />
        </mxCell>
        <mxCell id="1kwHoDAKHIwVnWZ9qKXR-1" value="Start" style="rounded=1;whiteSpace=wrap;html=1;" parent="1" vertex="1">
          <mxGeometry x="386" y="540" width="120" height="60" as="geometry" />
        </mxCell>
        <mxCell id="39DIHfGKGRZBKEEOlCm_-38" style="edgeStyle=orthogonalEdgeStyle;rounded=0;orthogonalLoop=1;jettySize=auto;html=1;exitX=1;exitY=0.5;exitDx=0;exitDy=0;entryX=0;entryY=0.5;entryDx=0;entryDy=0;" parent="1" source="1kwHoDAKHIwVnWZ9qKXR-2" target="1kwHoDAKHIwVnWZ9qKXR-22" edge="1">
          <mxGeometry relative="1" as="geometry" />
        </mxCell>
        <mxCell id="1kwHoDAKHIwVnWZ9qKXR-2" value="Main Problem Research" style="rounded=0;whiteSpace=wrap;html=1;fillColor=#5B9BD5;" parent="1" vertex="1">
          <mxGeometry x="606" y="260" width="120" height="60" as="geometry" />
        </mxCell>
        <mxCell id="39DIHfGKGRZBKEEOlCm_-39" style="edgeStyle=orthogonalEdgeStyle;rounded=0;orthogonalLoop=1;jettySize=auto;html=1;exitX=1;exitY=0.5;exitDx=0;exitDy=0;entryX=0;entryY=0.5;entryDx=0;entryDy=0;" parent="1" source="1kwHoDAKHIwVnWZ9qKXR-4" target="1kwHoDAKHIwVnWZ9qKXR-24" edge="1">
          <mxGeometry relative="1" as="geometry" />
        </mxCell>
        <mxCell id="1kwHoDAKHIwVnWZ9qKXR-4" value="Research Papers" style="rounded=0;whiteSpace=wrap;html=1;fillColor=#5B9BD5;" parent="1" vertex="1">
          <mxGeometry x="606" y="340" width="120" height="60" as="geometry" />
        </mxCell>
        <mxCell id="39DIHfGKGRZBKEEOlCm_-40" style="edgeStyle=orthogonalEdgeStyle;rounded=0;orthogonalLoop=1;jettySize=auto;html=1;exitX=1;exitY=0.5;exitDx=0;exitDy=0;entryX=0;entryY=0.5;entryDx=0;entryDy=0;" parent="1" source="1kwHoDAKHIwVnWZ9qKXR-6" target="1kwHoDAKHIwVnWZ9qKXR-26" edge="1">
          <mxGeometry relative="1" as="geometry" />
        </mxCell>
        <mxCell id="1kwHoDAKHIwVnWZ9qKXR-6" value="Real Life Project" style="rounded=0;whiteSpace=wrap;html=1;fillColor=#5B9BD5;" parent="1" vertex="1">
          <mxGeometry x="606" y="420" width="120" height="60" as="geometry" />
        </mxCell>
        <mxCell id="1kwHoDAKHIwVnWZ9qKXR-8" value="Introduction" style="rounded=0;whiteSpace=wrap;html=1;fillColor=#5B9BD5;" parent="1" vertex="1">
          <mxGeometry x="606" y="500" width="120" height="60" as="geometry" />
        </mxCell>
        <mxCell id="39DIHfGKGRZBKEEOlCm_-42" style="edgeStyle=orthogonalEdgeStyle;rounded=0;orthogonalLoop=1;jettySize=auto;html=1;exitX=1;exitY=0.5;exitDx=0;exitDy=0;entryX=0;entryY=0.5;entryDx=0;entryDy=0;" parent="1" source="1kwHoDAKHIwVnWZ9qKXR-11" target="1kwHoDAKHIwVnWZ9qKXR-26" edge="1">
          <mxGeometry relative="1" as="geometry" />
        </mxCell>
        <mxCell id="1kwHoDAKHIwVnWZ9qKXR-11" value="System Description" style="rounded=0;whiteSpace=wrap;html=1;fillColor=#5B9BD5;" parent="1" vertex="1">
          <mxGeometry x="606" y="580" width="120" height="60" as="geometry" />
        </mxCell>
        <mxCell id="1kwHoDAKHIwVnWZ9qKXR-15" value="System Purpose" style="rounded=0;whiteSpace=wrap;html=1;fillColor=#5B9BD5;" parent="1" vertex="1">
          <mxGeometry x="606" y="660" width="120" height="60" as="geometry" />
        </mxCell>
        <mxCell id="39DIHfGKGRZBKEEOlCm_-44" style="edgeStyle=orthogonalEdgeStyle;rounded=0;orthogonalLoop=1;jettySize=auto;html=1;exitX=1;exitY=0.5;exitDx=0;exitDy=0;entryX=0;entryY=0.5;entryDx=0;entryDy=0;" parent="1" source="1kwHoDAKHIwVnWZ9qKXR-17" target="1kwHoDAKHIwVnWZ9qKXR-26" edge="1">
          <mxGeometry relative="1" as="geometry" />
        </mxCell>
        <mxCell id="1kwHoDAKHIwVnWZ9qKXR-17" value="Problem Statement" style="rounded=0;whiteSpace=wrap;html=1;fillColor=#5B9BD5;" parent="1" vertex="1">
          <mxGeometry x="606" y="740" width="120" height="60" as="geometry" />
        </mxCell>
        <mxCell id="39DIHfGKGRZBKEEOlCm_-45" style="edgeStyle=orthogonalEdgeStyle;rounded=0;orthogonalLoop=1;jettySize=auto;html=1;exitX=1;exitY=0.5;exitDx=0;exitDy=0;entryX=0;entryY=0.5;entryDx=0;entryDy=0;" parent="1" source="1kwHoDAKHIwVnWZ9qKXR-19" target="1kwHoDAKHIwVnWZ9qKXR-24" edge="1">
          <mxGeometry relative="1" as="geometry" />
        </mxCell>
        <mxCell id="1kwHoDAKHIwVnWZ9qKXR-19" value="System Context Design" style="rounded=0;whiteSpace=wrap;html=1;fillColor=#5B9BD5;" parent="1" vertex="1">
          <mxGeometry x="606" y="820" width="120" height="60" as="geometry" />
        </mxCell>
        <mxCell id="k-VmG72Gza5ZQCO4Gvvp-2" style="edgeStyle=orthogonalEdgeStyle;rounded=0;orthogonalLoop=1;jettySize=auto;html=1;exitX=1;exitY=0.5;exitDx=0;exitDy=0;entryX=0;entryY=0.5;entryDx=0;entryDy=0;" parent="1" source="1kwHoDAKHIwVnWZ9qKXR-22" target="k-VmG72Gza5ZQCO4Gvvp-1" edge="1">
          <mxGeometry relative="1" as="geometry" />
        </mxCell>
        <mxCell id="1kwHoDAKHIwVnWZ9qKXR-22" value="Literature Review" style="rounded=0;whiteSpace=wrap;html=1;fillColor=#5B9BD5;" parent="1" vertex="1">
          <mxGeometry x="826" y="420" width="120" height="60" as="geometry" />
        </mxCell>
        <mxCell id="k-VmG72Gza5ZQCO4Gvvp-4" style="edgeStyle=orthogonalEdgeStyle;rounded=0;orthogonalLoop=1;jettySize=auto;html=1;exitX=1;exitY=0.5;exitDx=0;exitDy=0;entryX=0;entryY=0.5;entryDx=0;entryDy=0;" parent="1" source="1kwHoDAKHIwVnWZ9qKXR-24" target="k-VmG72Gza5ZQCO4Gvvp-1" edge="1">
          <mxGeometry relative="1" as="geometry" />
        </mxCell>
        <mxCell id="1kwHoDAKHIwVnWZ9qKXR-24" value="Challenges" style="rounded=0;whiteSpace=wrap;html=1;fillColor=#5B9BD5;" parent="1" vertex="1">
          <mxGeometry x="826" y="540" width="120" height="60" as="geometry" />
        </mxCell>
        <mxCell id="k-VmG72Gza5ZQCO4Gvvp-6" style="edgeStyle=orthogonalEdgeStyle;rounded=0;orthogonalLoop=1;jettySize=auto;html=1;exitX=1;exitY=0.5;exitDx=0;exitDy=0;entryX=0;entryY=0.5;entryDx=0;entryDy=0;" parent="1" source="1kwHoDAKHIwVnWZ9qKXR-26" target="k-VmG72Gza5ZQCO4Gvvp-1" edge="1">
          <mxGeometry relative="1" as="geometry" />
        </mxCell>
        <mxCell id="1kwHoDAKHIwVnWZ9qKXR-26" value="Projection" style="rounded=0;whiteSpace=wrap;html=1;fillColor=#5B9BD5;" parent="1" vertex="1">
          <mxGeometry x="826" y="660" width="120" height="60" as="geometry" />
        </mxCell>
        <mxCell id="39DIHfGKGRZBKEEOlCm_-63" style="edgeStyle=orthogonalEdgeStyle;rounded=0;orthogonalLoop=1;jettySize=auto;html=1;exitX=1;exitY=0.5;exitDx=0;exitDy=0;entryX=0;entryY=0.5;entryDx=0;entryDy=0;" parent="1" source="39DIHfGKGRZBKEEOlCm_-2" target="39DIHfGKGRZBKEEOlCm_-3" edge="1">
          <mxGeometry relative="1" as="geometry" />
        </mxCell>
        <mxCell id="39DIHfGKGRZBKEEOlCm_-2" value="Functional Requirements" style="rounded=0;whiteSpace=wrap;html=1;fillColor=#8E7CC3;" parent="1" vertex="1">
          <mxGeometry x="1256" y="340" width="120" height="60" as="geometry" />
        </mxCell>
        <mxCell id="39DIHfGKGRZBKEEOlCm_-32" style="edgeStyle=orthogonalEdgeStyle;rounded=0;orthogonalLoop=1;jettySize=auto;html=1;exitX=1;exitY=0.5;exitDx=0;exitDy=0;entryX=0;entryY=0.5;entryDx=0;entryDy=0;" parent="1" source="39DIHfGKGRZBKEEOlCm_-3" target="gVUuNYYb5GjVkxLs63HM-12" edge="1">
          <mxGeometry relative="1" as="geometry">
            <mxPoint x="1666" y="570" as="targetPoint" />
          </mxGeometry>
        </mxCell>
        <mxCell id="gVUuNYYb5GjVkxLs63HM-16" style="edgeStyle=orthogonalEdgeStyle;rounded=0;orthogonalLoop=1;jettySize=auto;html=1;exitX=1;exitY=0.5;exitDx=0;exitDy=0;entryX=0;entryY=0.5;entryDx=0;entryDy=0;" parent="1" source="39DIHfGKGRZBKEEOlCm_-3" target="gVUuNYYb5GjVkxLs63HM-11" edge="1">
          <mxGeometry relative="1" as="geometry" />
        </mxCell>
        <mxCell id="gVUuNYYb5GjVkxLs63HM-17" style="edgeStyle=orthogonalEdgeStyle;rounded=0;orthogonalLoop=1;jettySize=auto;html=1;exitX=1;exitY=0.5;exitDx=0;exitDy=0;entryX=0;entryY=0.5;entryDx=0;entryDy=0;" parent="1" source="39DIHfGKGRZBKEEOlCm_-3" target="gVUuNYYb5GjVkxLs63HM-13" edge="1">
          <mxGeometry relative="1" as="geometry" />
        </mxCell>
        <mxCell id="gVUuNYYb5GjVkxLs63HM-19" style="edgeStyle=orthogonalEdgeStyle;rounded=0;orthogonalLoop=1;jettySize=auto;html=1;exitX=1;exitY=0.5;exitDx=0;exitDy=0;entryX=0;entryY=0.5;entryDx=0;entryDy=0;" parent="1" source="39DIHfGKGRZBKEEOlCm_-3" target="gVUuNYYb5GjVkxLs63HM-15" edge="1">
          <mxGeometry relative="1" as="geometry" />
        </mxCell>
        <mxCell id="39DIHfGKGRZBKEEOlCm_-3" value="Verification Phase Two" style="rounded=0;whiteSpace=wrap;html=1;fillColor=#8E7CC3;" parent="1" vertex="1">
          <mxGeometry x="1476" y="540" width="120" height="60" as="geometry" />
        </mxCell>
        <mxCell id="39DIHfGKGRZBKEEOlCm_-58" style="edgeStyle=orthogonalEdgeStyle;rounded=0;orthogonalLoop=1;jettySize=auto;html=1;exitX=1;exitY=0.5;exitDx=0;exitDy=0;entryX=0;entryY=0.5;entryDx=0;entryDy=0;" parent="1" source="39DIHfGKGRZBKEEOlCm_-4" target="39DIHfGKGRZBKEEOlCm_-3" edge="1">
          <mxGeometry relative="1" as="geometry" />
        </mxCell>
        <mxCell id="39DIHfGKGRZBKEEOlCm_-4" value="Use Case" style="rounded=0;whiteSpace=wrap;html=1;fillColor=#8E7CC3;" parent="1" vertex="1">
          <mxGeometry x="1256" y="540" width="120" height="60" as="geometry" />
        </mxCell>
        <mxCell id="39DIHfGKGRZBKEEOlCm_-62" style="edgeStyle=orthogonalEdgeStyle;rounded=0;orthogonalLoop=1;jettySize=auto;html=1;exitX=1;exitY=0.5;exitDx=0;exitDy=0;entryX=0;entryY=0.5;entryDx=0;entryDy=0;" parent="1" source="39DIHfGKGRZBKEEOlCm_-7" target="39DIHfGKGRZBKEEOlCm_-3" edge="1">
          <mxGeometry relative="1" as="geometry" />
        </mxCell>
        <mxCell id="39DIHfGKGRZBKEEOlCm_-7" value="Non Functional Properties" style="rounded=0;whiteSpace=wrap;html=1;fillColor=#8E7CC3;" parent="1" vertex="1">
          <mxGeometry x="1256" y="440" width="120" height="60" as="geometry" />
        </mxCell>
        <mxCell id="39DIHfGKGRZBKEEOlCm_-60" style="edgeStyle=orthogonalEdgeStyle;rounded=0;orthogonalLoop=1;jettySize=auto;html=1;exitX=1;exitY=0.5;exitDx=0;exitDy=0;entryX=0;entryY=0.5;entryDx=0;entryDy=0;" parent="1" source="39DIHfGKGRZBKEEOlCm_-11" target="39DIHfGKGRZBKEEOlCm_-3" edge="1">
          <mxGeometry relative="1" as="geometry" />
        </mxCell>
        <mxCell id="39DIHfGKGRZBKEEOlCm_-11" value="Activity Diagram" style="rounded=0;whiteSpace=wrap;html=1;fillColor=#8E7CC3;" parent="1" vertex="1">
          <mxGeometry x="1256" y="640" width="120" height="60" as="geometry" />
        </mxCell>
        <mxCell id="39DIHfGKGRZBKEEOlCm_-61" style="edgeStyle=orthogonalEdgeStyle;rounded=0;orthogonalLoop=1;jettySize=auto;html=1;exitX=1;exitY=0.5;exitDx=0;exitDy=0;entryX=0;entryY=0.5;entryDx=0;entryDy=0;" parent="1" source="39DIHfGKGRZBKEEOlCm_-26" target="39DIHfGKGRZBKEEOlCm_-3" edge="1">
          <mxGeometry relative="1" as="geometry" />
        </mxCell>
        <mxCell id="39DIHfGKGRZBKEEOlCm_-26" value="Class Diagram" style="rounded=0;whiteSpace=wrap;html=1;fillColor=#8E7CC3;" parent="1" vertex="1">
          <mxGeometry x="1256" y="740" width="120" height="60" as="geometry" />
        </mxCell>
        <mxCell id="k-VmG72Gza5ZQCO4Gvvp-7" style="edgeStyle=orthogonalEdgeStyle;rounded=0;orthogonalLoop=1;jettySize=auto;html=1;exitX=1;exitY=0.5;exitDx=0;exitDy=0;entryX=0;entryY=0.5;entryDx=0;entryDy=0;" parent="1" source="k-VmG72Gza5ZQCO4Gvvp-1" target="39DIHfGKGRZBKEEOlCm_-2" edge="1">
          <mxGeometry relative="1" as="geometry" />
        </mxCell>
        <mxCell id="k-VmG72Gza5ZQCO4Gvvp-8" style="edgeStyle=orthogonalEdgeStyle;rounded=0;orthogonalLoop=1;jettySize=auto;html=1;exitX=1;exitY=0.5;exitDx=0;exitDy=0;entryX=0;entryY=0.5;entryDx=0;entryDy=0;" parent="1" source="k-VmG72Gza5ZQCO4Gvvp-1" target="39DIHfGKGRZBKEEOlCm_-7" edge="1">
          <mxGeometry relative="1" as="geometry" />
        </mxCell>
        <mxCell id="k-VmG72Gza5ZQCO4Gvvp-9" style="edgeStyle=orthogonalEdgeStyle;rounded=0;orthogonalLoop=1;jettySize=auto;html=1;exitX=1;exitY=0.5;exitDx=0;exitDy=0;entryX=0;entryY=0.5;entryDx=0;entryDy=0;" parent="1" source="k-VmG72Gza5ZQCO4Gvvp-1" target="39DIHfGKGRZBKEEOlCm_-4" edge="1">
          <mxGeometry relative="1" as="geometry" />
        </mxCell>
        <mxCell id="k-VmG72Gza5ZQCO4Gvvp-10" style="edgeStyle=orthogonalEdgeStyle;rounded=0;orthogonalLoop=1;jettySize=auto;html=1;exitX=1;exitY=0.5;exitDx=0;exitDy=0;entryX=0;entryY=0.5;entryDx=0;entryDy=0;" parent="1" source="k-VmG72Gza5ZQCO4Gvvp-1" target="39DIHfGKGRZBKEEOlCm_-11" edge="1">
          <mxGeometry relative="1" as="geometry" />
        </mxCell>
        <mxCell id="k-VmG72Gza5ZQCO4Gvvp-11" style="edgeStyle=orthogonalEdgeStyle;rounded=0;orthogonalLoop=1;jettySize=auto;html=1;exitX=1;exitY=0.5;exitDx=0;exitDy=0;entryX=0;entryY=0.5;entryDx=0;entryDy=0;" parent="1" source="k-VmG72Gza5ZQCO4Gvvp-1" target="39DIHfGKGRZBKEEOlCm_-26" edge="1">
          <mxGeometry relative="1" as="geometry" />
        </mxCell>
        <mxCell id="k-VmG72Gza5ZQCO4Gvvp-1" value="Verification Phase One" style="rounded=0;whiteSpace=wrap;html=1;fillColor=#5B9BD5;" parent="1" vertex="1">
          <mxGeometry x="1046" y="540" width="120" height="60" as="geometry" />
        </mxCell>
        <mxCell id="gVUuNYYb5GjVkxLs63HM-24" style="edgeStyle=orthogonalEdgeStyle;rounded=0;orthogonalLoop=1;jettySize=auto;html=1;exitX=1;exitY=0.5;exitDx=0;exitDy=0;entryX=0;entryY=0.5;entryDx=0;entryDy=0;" parent="1" source="gVUuNYYb5GjVkxLs63HM-11" target="gVUuNYYb5GjVkxLs63HM-23" edge="1">
          <mxGeometry relative="1" as="geometry" />
        </mxCell>
        <mxCell id="gVUuNYYb5GjVkxLs63HM-11" value="Sequence Diagram" style="rounded=0;whiteSpace=wrap;html=1;fillColor=#28cf70;" parent="1" vertex="1">
          <mxGeometry x="1700" y="390" width="120" height="60" as="geometry" />
        </mxCell>
        <mxCell id="gVUuNYYb5GjVkxLs63HM-26" style="edgeStyle=orthogonalEdgeStyle;rounded=0;orthogonalLoop=1;jettySize=auto;html=1;exitX=1;exitY=0.5;exitDx=0;exitDy=0;entryX=0;entryY=0.5;entryDx=0;entryDy=0;" parent="1" source="gVUuNYYb5GjVkxLs63HM-12" target="gVUuNYYb5GjVkxLs63HM-23" edge="1">
          <mxGeometry relative="1" as="geometry" />
        </mxCell>
        <mxCell id="gVUuNYYb5GjVkxLs63HM-12" value="User Interfaces" style="rounded=0;whiteSpace=wrap;html=1;fillColor=#28cf70;" parent="1" vertex="1">
          <mxGeometry x="1700" y="590" width="120" height="60" as="geometry" />
        </mxCell>
        <mxCell id="gVUuNYYb5GjVkxLs63HM-25" style="edgeStyle=orthogonalEdgeStyle;rounded=0;orthogonalLoop=1;jettySize=auto;html=1;exitX=1;exitY=0.5;exitDx=0;exitDy=0;entryX=0;entryY=0.5;entryDx=0;entryDy=0;" parent="1" source="gVUuNYYb5GjVkxLs63HM-13" target="gVUuNYYb5GjVkxLs63HM-23" edge="1">
          <mxGeometry relative="1" as="geometry" />
        </mxCell>
        <mxCell id="gVUuNYYb5GjVkxLs63HM-13" value="State Machine Diagram" style="rounded=0;whiteSpace=wrap;html=1;fillColor=#28cf70;" parent="1" vertex="1">
          <mxGeometry x="1700" y="490" width="120" height="60" as="geometry" />
        </mxCell>
        <mxCell id="gVUuNYYb5GjVkxLs63HM-27" style="edgeStyle=orthogonalEdgeStyle;rounded=0;orthogonalLoop=1;jettySize=auto;html=1;exitX=1;exitY=0.5;exitDx=0;exitDy=0;entryX=0;entryY=0.5;entryDx=0;entryDy=0;" parent="1" source="gVUuNYYb5GjVkxLs63HM-15" target="gVUuNYYb5GjVkxLs63HM-23" edge="1">
          <mxGeometry relative="1" as="geometry" />
        </mxCell>
        <mxCell id="gVUuNYYb5GjVkxLs63HM-15" value="Conclusion and Future Work" style="rounded=0;whiteSpace=wrap;html=1;fillColor=#28cf70;" parent="1" vertex="1">
          <mxGeometry x="1700" y="690" width="120" height="60" as="geometry" />
        </mxCell>
        <mxCell id="hjlIksdVB4YstoHHY6_k-2" style="edgeStyle=orthogonalEdgeStyle;rounded=0;orthogonalLoop=1;jettySize=auto;html=1;exitX=1;exitY=0.5;exitDx=0;exitDy=0;entryX=0;entryY=0.5;entryDx=0;entryDy=0;" edge="1" parent="1" source="gVUuNYYb5GjVkxLs63HM-23" target="hjlIksdVB4YstoHHY6_k-1">
          <mxGeometry relative="1" as="geometry" />
        </mxCell>
        <mxCell id="gVUuNYYb5GjVkxLs63HM-23" value="Verification Phase Three" style="rounded=0;whiteSpace=wrap;html=1;fillColor=#28CF70;" parent="1" vertex="1">
          <mxGeometry x="1960" y="540" width="120" height="60" as="geometry" />
        </mxCell>
        <mxCell id="hjlIksdVB4YstoHHY6_k-1" value="End" style="rounded=1;whiteSpace=wrap;html=1;" vertex="1" parent="1">
          <mxGeometry x="2180" y="540" width="120" height="60" as="geometry" />
        </mxCell>
      </root>
    </mxGraphModel>
  </diagram>
</mxfile>
